#define smoflow3d_width 48
#define smoflow3d_height 48
static unsigned char network_pipe_bits[] = {
   0x00, 0x00, 0x00, 0x00, 0x00, 0x00, 0x00, 0x00, 0x00, 0x00, 0x00, 0x00,
   0x00, 0x00, 0x00, 0x00, 0x00, 0x00, 0x00, 0x00, 0x00, 0x00, 0x00, 0x00,
   0x00, 0x00, 0x00, 0x00, 0x00, 0x00, 0x00, 0x00, 0x00, 0x00, 0x00, 0x00,
   0x00, 0x00, 0x00, 0x00, 0x00, 0x00, 0x00, 0x00, 0x00, 0x00, 0x00, 0x00,
   0x00, 0x00, 0x00, 0x00, 0x00, 0x00, 0x00, 0x00, 0x00, 0x00, 0x00, 0x00,
   0x00, 0x00, 0x00, 0x00, 0x00, 0x00, 0x00, 0x00, 0x00, 0x00, 0x00, 0x00,
   0x00, 0x00, 0x00, 0x00, 0x00, 0x00, 0x00, 0x00, 0x00, 0x00, 0x00, 0x00,
   0x00, 0x00, 0x00, 0x00, 0x00, 0x00, 0x00, 0x00, 0x00, 0x00, 0x00, 0x00,
   0x00, 0x00, 0x00, 0x00, 0x00, 0x00, 0x00, 0x00, 0x00, 0x00, 0x00, 0x00,
   0x00, 0x00, 0x00, 0x00, 0x00, 0x00, 0x00, 0x00, 0x00, 0x00, 0x00, 0x00,
   0x00, 0x00, 0x00, 0x00, 0x00, 0x00, 0x00, 0x00, 0x00, 0x00, 0x00, 0x00,
   0x00, 0x00, 0xe0, 0x07, 0x00, 0x00, 0x00, 0x00, 0x20, 0x04, 0x00, 0x00,
   0x00, 0x00, 0x20, 0x04, 0x00, 0x00, 0x00, 0x00, 0x20, 0x04, 0x00, 0x00,
   0x00, 0x00, 0x20, 0x04, 0x00, 0x00, 0x00, 0x00, 0x20, 0x04, 0x00, 0x00,
   0x00, 0x00, 0x20, 0x04, 0x00, 0x00, 0x00, 0x00, 0x20, 0x04, 0x00, 0x00,
   0x00, 0x00, 0x20, 0x04, 0x00, 0x00, 0x00, 0x00, 0x20, 0x04, 0x00, 0x00,
   0x00, 0x00, 0x20, 0x04, 0x00, 0x00, 0x00, 0x00, 0x20, 0x04, 0x00, 0x00,
   0x00, 0x00, 0x20, 0x04, 0x00, 0x00, 0x00, 0x00, 0x20, 0x04, 0x00, 0x00,
   0x00, 0x00, 0x20, 0x04, 0x00, 0x00, 0x00, 0x00, 0xff, 0xff, 0x00, 0x00,
   0x00, 0x00, 0x01, 0x80, 0x00, 0x00, 0xc0, 0xff, 0x01, 0x80, 0xff, 0x03,
   0x40, 0x00, 0x01, 0x80, 0x00, 0x02, 0x40, 0x00, 0x01, 0x80, 0x00, 0x02,
   0x40, 0x00, 0x01, 0x80, 0x00, 0x02, 0x40, 0x00, 0x01, 0x80, 0x00, 0x02,
   0xc0, 0xff, 0x01, 0x80, 0xff, 0x03, 0x00, 0x00, 0xff, 0xff, 0x00, 0x00,
   0x00, 0x00, 0x00, 0x00, 0x00, 0x00, 0x00, 0x00, 0x00, 0x00, 0x00, 0x00 };
