#define _width 32
#define _height 13
static char _bits[] = {
 0x00,0x00,0x00,0x00,0x00,0xfc,0xff,0x00,0x00,0x04,0x80,0x00,0x00,0x44,0x84,
 0x00,0xfe,0xa7,0xaa,0x00,0x92,0x14,0x91,0x00,0x93,0x04,0x80,0xff,0x92,0x44,
 0x84,0x00,0xfe,0xa7,0xaa,0x00,0x00,0x14,0x91,0x00,0x00,0x04,0x80,0x00,0x00,
 0xfc,0xff,0x00,0x00,0x00,0x00,0x00 };
