#define _width 29
#define _height 30
static char _bits[] = {
 0x00,0x00,0x00,0x00,0x00,0x00,0x00,0x00,0x00,0x00,0x00,0x00,0x00,0x00,0x00,
 0x00,0x24,0x49,0x92,0x04,0x24,0x49,0x92,0x04,0x08,0x02,0x04,0x08,0xe8,0x42,
 0xe4,0x08,0x64,0xe0,0xc0,0x04,0xa4,0xf0,0xa1,0x04,0x08,0x41,0x10,0x08,0x48,
 0x42,0x08,0x09,0x24,0x44,0x84,0x04,0x24,0x44,0x94,0x04,0x48,0x44,0x24,0x09,
 0x48,0x00,0x20,0x09,0x00,0x00,0x00,0x00,0xfc,0xff,0xff,0x0f,0x24,0x49,0x92,
 0x0c,0x94,0xf4,0x49,0x0a,0x4c,0x12,0x25,0x09,0xfc,0x1f,0xff,0x0f,0x00,0xf0,
 0x01,0x00,0x00,0x14,0x01,0x00,0x00,0x10,0x01,0x00,0x0e,0xf1,0x01,0x00,0x04,
 0x10,0x01,0x00,0x5f,0x10,0x01,0x00,0x04,0xf0,0x01,0x00,0x0e,0x40,0x00,0x00 };
^ 1 28 signal
^ 15 30 thermal
