#define _width 49
#define _height 49
static char _bits[] = {
 0x00,0x00,0x00,0x01,0x00,0x00,0x00,0x00,0x00,0x00,0x01,0x00,0x00,0x00,0x00,
 0x00,0x00,0x01,0x00,0x00,0x00,0x00,0x00,0x00,0x01,0x00,0x00,0x00,0x00,0x00,
 0x00,0x01,0x00,0x00,0x00,0x00,0x00,0x00,0x01,0x00,0x00,0x00,0x00,0x00,0x00,
 0x01,0x00,0x00,0x00,0x00,0x00,0x00,0x01,0x00,0x00,0x00,0x00,0x00,0x00,0x01,
 0x00,0x00,0x00,0x00,0x00,0x00,0x01,0x00,0x00,0x00,0x00,0x00,0xe0,0x0f,0x00,
 0x00,0x00,0x00,0x00,0xf8,0x3f,0x00,0x00,0x00,0x00,0x00,0x3e,0xf8,0x00,0x00,
 0x00,0x00,0x00,0x37,0xd8,0x01,0x00,0x00,0x00,0x80,0x1b,0xb0,0x03,0x00,0x00,
 0x00,0xc0,0x18,0x30,0x06,0x00,0x00,0x00,0x60,0x18,0x30,0x0c,0x00,0x00,0x00,
 0x70,0x0c,0x60,0x1c,0x00,0x00,0x00,0x30,0x0c,0x60,0x18,0x00,0x00,0x00,0x18,
 0x06,0xc0,0x30,0x00,0x00,0xff,0x1f,0x06,0xc0,0x30,0x00,0x00,0xff,0x1f,0x06,
 0xc0,0x30,0x00,0x00,0x00,0x18,0x03,0x80,0xf9,0xff,0x00,0x00,0x18,0x03,0x80,
 0x49,0x92,0x00,0x07,0x0c,0x03,0x80,0x49,0x92,0x01,0x00,0x88,0x01,0x00,0x4b,
 0x92,0x00,0x00,0x98,0x01,0x00,0xfb,0xff,0x00,0xff,0xdf,0x00,0x00,0x36,0x00,
 0x00,0xff,0xdf,0x00,0x00,0x36,0x00,0x00,0x00,0xd8,0x00,0x00,0x36,0x00,0x00,
 0x00,0x70,0x00,0x00,0x1c,0x00,0x00,0x00,0x70,0x00,0x00,0x1c,0x00,0x00,0x00,
 0x60,0x00,0x00,0x0c,0x00,0x00,0x00,0xc0,0x00,0x00,0x06,0x00,0x00,0x00,0x80,
 0x03,0x80,0x03,0x00,0x00,0x00,0x00,0x07,0xc0,0x01,0x00,0x00,0x00,0x00,0x1e,
 0xf0,0x00,0x00,0x00,0x00,0x00,0xf8,0x3f,0x00,0x00,0x00,0x00,0x00,0xf0,0x1f,
 0x00,0x00,0x00,0x00,0x00,0x00,0x01,0x00,0x00,0x00,0x00,0x00,0x00,0x01,0x00,
 0x00,0x00,0x00,0x00,0x00,0x01,0x00,0x00,0x00,0x00,0x00,0x00,0x01,0x00,0x00,
 0x00,0x00,0x00,0x00,0x01,0x00,0x00,0x00,0x00,0x00,0x00,0x01,0x00,0x00,0x00,
 0x00,0x00,0x00,0x01,0x00,0x00,0x00,0x00,0x00,0x00,0x01,0x00,0x00,0x00,0x00,
 0x00,0x00,0x01,0x00,0x00,0x00,0x00,0x00,0x00,0x01,0x00,0x00,0x00 };
