#define _width 32
#define _height 32
static char _bits[] = {
 0x00,0x00,0x00,0x00,0x00,0x00,0x00,0x00,0x00,0x00,0x00,0x00,0x80,0xff,0x01,
 0x00,0xe0,0xff,0x07,0x00,0xf0,0x00,0x0f,0x00,0x38,0x00,0x1c,0x00,0x1c,0x00,
 0x38,0x00,0x0e,0x00,0x70,0x00,0x06,0x00,0x60,0x00,0x07,0x00,0xe0,0x00,0x43,
 0x00,0xc0,0x01,0x43,0x00,0xc0,0x03,0x43,0x20,0xc0,0x06,0x73,0x66,0xc6,0x0c,
 0x4b,0x28,0xc8,0xf8,0x4b,0x2e,0xce,0x0c,0x4b,0x29,0xc9,0x06,0x73,0x4e,0xce,
 0x03,0x03,0x00,0xc0,0x01,0x07,0x00,0xe0,0x00,0x06,0x00,0x60,0x00,0x0e,0x00,
 0x70,0x00,0x1c,0x00,0x38,0x00,0x38,0x00,0x1c,0x00,0xf0,0x00,0x0f,0x00,0xe0,
 0xff,0x07,0x00,0x80,0xff,0x01,0x00,0x00,0x00,0x00,0x00,0x00,0x00,0x00,0x00,
 0x00,0x00,0x00,0x00,0x00,0x00,0x00,0x00 };
