#define FluidFlowGain_width 19
#define FluidFlowGain_height 21
static unsigned char FluidFlowGain_bits[] = {
   0x00, 0x02, 0x00, 0x80, 0x08, 0x00, 0x80, 0x0f, 0x00, 0x80, 0x08, 0x00,
   0x00, 0x02, 0x00, 0x00, 0x00, 0x00, 0x00, 0x02, 0x00, 0x00, 0x00, 0x00,
   0x00, 0x07, 0x00, 0xfe, 0x0f, 0x00, 0xff, 0xff, 0x07, 0xfe, 0x0f, 0x00,
   0x00, 0x07, 0x00, 0x00, 0x00, 0x00, 0x00, 0x00, 0x00, 0x00, 0x00, 0x00,
   0x00, 0x00, 0x00, 0x00, 0x00, 0x00, 0x00, 0x00, 0x00, 0x00, 0x00, 0x00,
   0x00, 0x00, 0x00 };
