#define _width 19
#define _height 21
static char _bits[] = {
 0x00,0x02,0x00,0x00,0x02,0x00,0x00,0x02,0x00,0x00,0x02,0x00,0x00,0x02,0x00,
 0x00,0x02,0x00,0x00,0x02,0x00,0x00,0x02,0x00,0x00,0x07,0x00,0xfe,0x0f,0x00,
 0xff,0xff,0x07,0xfe,0x0f,0x00,0x00,0x07,0x00,0x00,0x00,0x00,0x00,0x00,0x00,
 0x00,0x00,0x00,0x00,0x00,0x00,0x00,0x00,0x00,0x00,0x00,0x00,0x00,0x00,0x00,
 0x00,0x00,0x00 };
