#define _width 49
#define _height 37
static char _bits[] = {
 0x00,0x00,0x00,0x00,0x00,0x00,0x00,0x00,0x00,0x00,0x01,0x00,0x00,0x00,0x00,
 0x00,0xf0,0x1f,0x00,0x00,0x00,0x00,0x00,0xfc,0x7e,0x00,0x00,0x00,0x00,0x00,
 0x0e,0xe0,0x00,0x00,0x00,0x00,0x00,0x03,0x80,0x01,0x00,0x00,0x00,0x80,0x01,
 0x00,0x03,0x00,0x00,0x00,0x80,0x01,0x03,0x03,0x00,0x00,0x00,0xc0,0x00,0x03,
 0x06,0x00,0x00,0x80,0xc0,0x00,0x00,0x06,0x00,0x00,0x00,0xc3,0xc0,0x06,0x06,
 0x00,0x00,0x00,0xcc,0x20,0x09,0x06,0x00,0x00,0xff,0xff,0x20,0x09,0x06,0x00,
 0x00,0x00,0xcc,0x20,0x09,0x06,0x00,0x00,0x00,0xc3,0x20,0x09,0x06,0x00,0x00,
 0x80,0xc0,0x00,0x00,0x06,0x00,0x00,0x00,0xc0,0x00,0x00,0x06,0x00,0x00,0x00,
 0xc0,0x00,0x03,0x06,0x00,0x00,0x00,0xc0,0x00,0x03,0xfe,0xff,0x01,0x00,0xc0,
 0x00,0x00,0x06,0x00,0x00,0x00,0xc0,0x40,0x04,0x06,0x00,0x00,0x80,0xc0,0x40,
 0x04,0x06,0x00,0x00,0x00,0xc3,0x40,0x04,0x06,0x00,0x00,0x00,0xcc,0x40,0x04,
 0x06,0x00,0x00,0xff,0xff,0xc0,0x07,0x06,0x00,0x00,0x00,0xcc,0x40,0x04,0x06,
 0x00,0x00,0x00,0xc3,0x40,0x04,0x06,0x00,0x00,0x80,0xc0,0x40,0x04,0x06,0x00,
 0x00,0x00,0xc0,0x00,0x00,0x06,0x00,0x00,0x00,0x80,0x01,0x00,0x03,0x00,0x00,
 0x00,0x80,0x01,0x00,0x03,0x00,0x00,0x00,0x00,0x03,0x80,0x01,0x00,0x00,0x00,
 0x00,0x0e,0xe0,0x00,0x00,0x00,0x00,0x00,0xfc,0x7e,0x00,0x00,0x00,0x00,0x00,
 0xf0,0x1f,0x00,0x00,0x00,0x00,0x00,0x00,0x01,0x00,0x00,0x00,0x00,0x00,0x00,
 0x00,0x00,0x00,0x00 };
