#define _width 25
#define _height 49
static char _bits[] = {
 0x00,0x10,0x00,0x00,0x00,0x10,0x00,0x00,0x00,0x10,0x00,0x00,0x00,0x10,0x00,
 0x00,0x00,0x38,0x00,0x00,0x00,0x28,0x00,0x00,0x00,0x44,0x00,0x00,0x00,0x44,
 0x00,0x00,0x00,0xba,0x00,0x00,0x00,0xff,0x01,0x00,0xc0,0xef,0x07,0x00,0xe0,
 0x00,0x0e,0x00,0x70,0x44,0x1c,0x00,0x30,0x28,0x18,0x00,0x18,0x10,0x30,0x00,
 0x18,0x28,0x30,0x00,0x18,0x44,0x30,0x00,0x1c,0x00,0x70,0x00,0x4c,0x44,0x64,
 0x00,0xbc,0xaa,0x7a,0x00,0x58,0x55,0x35,0x00,0xb8,0xaa,0x3a,0x00,0x58,0x55,
 0x35,0x00,0xb0,0xaa,0x1a,0x00,0x70,0x55,0x1d,0x00,0xe0,0xaa,0x0e,0x00,0xc0,
 0xff,0x07,0x00,0x00,0xff,0x01,0x00,0x00,0x38,0x00,0x00,0x00,0x10,0x00,0x00,
 0x00,0x10,0x00,0x00,0x00,0x10,0x00,0x00,0x00,0x10,0x00,0x00,0x00,0x10,0x00,
 0x00,0x00,0x38,0x00,0x00,0xfe,0x7f,0x00,0x00,0xff,0xff,0xff,0x01,0xfe,0x7f,
 0x00,0x00,0x00,0x38,0x00,0x00,0x00,0x10,0x00,0x00,0x00,0x00,0x00,0x00,0x00,
 0x00,0x00,0x00,0x00,0x00,0x00,0x00,0x00,0x00,0x00,0x00,0x00,0x00,0x00,0x00,
 0x00,0x00,0x00,0x00,0x00,0x00,0x00,0x00,0x00,0x00,0x00,0x00,0x00,0x00,0x00,
 0x00 };
