#define _width 37
#define _height 37
static char _bits[] = {
 0x00,0x00,0x00,0x00,0x00,0x00,0x00,0x00,0x00,0x00,0x00,0xff,0x01,0x00,0x00,
 0xc0,0xff,0x07,0x00,0x00,0xe0,0x00,0x0e,0x00,0x00,0x30,0x00,0x18,0x00,0x00,
 0x18,0x00,0x30,0x00,0x00,0x18,0x00,0x30,0x00,0x00,0x0c,0x00,0x60,0x00,0x00,
 0x0c,0x3c,0x60,0x00,0x00,0x0c,0x44,0x60,0x00,0x00,0x0c,0x44,0x60,0x00,0x00,
 0x0c,0x3c,0x60,0x00,0x00,0x0c,0x04,0x60,0x00,0x00,0x0c,0x04,0x60,0x00,0x00,
 0x0c,0x04,0x60,0x00,0x00,0x0c,0x00,0x60,0x00,0x00,0x0c,0x00,0x60,0x00,0x00,
 0x0c,0x00,0xe0,0xff,0x1f,0x0c,0x00,0x60,0x00,0x00,0x0c,0x00,0x60,0x00,0x00,
 0x0c,0x78,0x60,0x00,0x00,0x0c,0x44,0x60,0x00,0x00,0x0c,0x44,0x60,0x00,0x00,
 0x0c,0x44,0x60,0x00,0x00,0x0c,0x44,0x60,0x00,0x00,0x0c,0x78,0x60,0x00,0x00,
 0x0c,0x40,0x60,0x00,0x00,0x0c,0x40,0x60,0x00,0x00,0x18,0x00,0x30,0x00,0x00,
 0x18,0x00,0x30,0x00,0x00,0x30,0x00,0x18,0x00,0x00,0xe0,0x00,0x0e,0x00,0x00,
 0xc0,0xff,0x07,0x00,0x00,0x00,0xff,0x01,0x00,0x00,0x00,0x00,0x00,0x00,0x00,
 0x00,0x00,0x00,0x00,0x00 };
