#define _width 25
#define _height 25
static char _bits[] = {
 0x00,0x10,0x00,0x00,0x00,0x00,0x00,0x00,0x00,0x10,0x00,0x00,0x00,0x00,0x00,
 0x00,0x00,0x10,0x00,0x00,0x00,0x00,0x00,0x00,0x00,0x38,0x00,0x00,0x80,0x28,
 0x02,0x00,0x80,0x29,0x03,0x00,0x80,0xbb,0x03,0x00,0x80,0xd6,0x02,0x00,0xfe,
 0x7c,0xfe,0x00,0xff,0x38,0xfe,0x01,0xfe,0x7c,0xfe,0x00,0x80,0xd6,0x02,0x00,
 0x80,0x93,0x03,0x00,0x80,0x39,0x03,0x00,0x80,0x6c,0x02,0x00,0x00,0xc6,0x00,
 0x00,0x00,0x83,0x01,0x00,0x80,0xff,0x03,0x00,0x00,0x10,0x00,0x00,0x00,0x10,
 0x00,0x00,0x00,0x10,0x00,0x00,0x00,0x10,0x00,0x00 };
