#define _width 29
#define _height 30
static char _bits[] = {
 0x00,0x80,0x00,0x00,0x00,0x80,0x00,0x00,0x00,0x80,0x00,0x00,0x00,0x80,0x00,
 0x00,0x00,0x80,0x00,0x00,0x82,0x80,0x80,0x00,0x48,0x48,0x48,0x04,0x20,0x22,
 0x21,0x01,0x10,0x10,0x10,0x00,0x14,0x10,0x10,0x02,0x20,0x21,0x24,0x00,0x40,
 0x48,0x40,0x08,0x82,0x80,0x80,0x00,0x00,0x11,0x25,0x01,0x20,0x01,0x01,0x01,
 0x84,0x84,0x80,0x04,0x40,0x40,0x50,0x00,0xfe,0xff,0xff,0x0f,0x4a,0x92,0x24,
 0x09,0x26,0xe9,0x93,0x0c,0x92,0x24,0x4a,0x0a,0xfe,0x3f,0xfe,0x0f,0x00,0xe0,
 0x07,0x00,0x00,0x20,0x0a,0x00,0x00,0x20,0x12,0x00,0x00,0xe0,0x23,0x0e,0x00,
 0x20,0x42,0x04,0x00,0x20,0x82,0x1f,0x00,0xe0,0x03,0x04,0x00,0x80,0x00,0x0e };
