#define _width 29
#define _height 30
static char _bits[] = {
 0x00,0x80,0x00,0x00,0x00,0x80,0x00,0x00,0x00,0x80,0x00,0x00,0x00,0x00,0x00,
 0x00,0x20,0x49,0x92,0x04,0x20,0x49,0x92,0x04,0x40,0x92,0x24,0x09,0x40,0x92,
 0x24,0x09,0x20,0x49,0x92,0x04,0x20,0x49,0x92,0x04,0x00,0x00,0x00,0x00,0x80,
 0x99,0x99,0x09,0x60,0x66,0x66,0x06,0x04,0x00,0x00,0x00,0x8f,0x99,0x99,0x09,
 0x64,0x66,0x66,0x06,0x00,0x00,0x00,0x00,0xf0,0xff,0xff,0x0f,0x50,0x92,0x24,
 0x09,0x30,0xe9,0x93,0x0c,0x90,0x24,0x4a,0x0a,0xf0,0x3f,0xfe,0x0f,0x00,0xe0,
 0x03,0x00,0x00,0x28,0x02,0x00,0x00,0x20,0x02,0x00,0x0e,0xe2,0x03,0x00,0x04,
 0x20,0x02,0x00,0xaf,0x20,0x02,0x00,0x04,0xe0,0x03,0x00,0x0e,0x80,0x00,0x00 };
^ 16 1 hflow
^ 16 30 thermal
^ 1 28 signal
^ 1 15 signal
