#define _width 19
#define _height 19
static char _bits[] = {
 0x00,0x02,0x00,0x80,0x0f,0x00,0x80,0x0f,0x00,0x80,0x08,0x00,0x80,0x0f,0x00,
 0x80,0x0f,0x00,0x80,0x08,0x00,0x80,0x0f,0x00,0xfe,0xff,0x03,0x92,0x48,0x02,
 0x93,0x48,0x06,0x92,0x48,0x02,0xfe,0xff,0x03,0x00,0x00,0x00,0x00,0x00,0x00,
 0x00,0x00,0x00,0x00,0x00,0x00,0x00,0x00,0x00,0x00,0x00,0x00 };
