#define _width 9
#define _height 15
static char _bits[] = {
 0x10,0x00,0x7c,0x00,0x44,0x00,0x44,0x00,0x7c,0x00,0x44,0x00,0x44,0x00,0xc6,
 0x00,0xee,0x00,0x7c,0x00,0x38,0x00,0x7c,0x00,0xee,0x00,0xc6,0x00,0x00,0x00 };
