#define HeatFlowSplitter3Port_01_width 19
#define HeatFlowSplitter3Port_01_height 20
static unsigned char HeatFlowSplitter3Port_01_bits[] = {
   0x00, 0x02, 0x00, 0x80, 0x0f, 0x00, 0x80, 0x0f, 0x00, 0x80, 0x08, 0x00,
   0x80, 0x0f, 0x00, 0x80, 0x0f, 0x00, 0x80, 0x08, 0x00, 0x80, 0x0f, 0x00,
   0x80, 0xff, 0x03, 0x80, 0x48, 0x02, 0x80, 0x48, 0x06, 0x80, 0x48, 0x02,
   0x80, 0xff, 0x03, 0x80, 0x08, 0x00, 0x80, 0x08, 0x00, 0x80, 0x0f, 0x00,
   0x80, 0x08, 0x00, 0x80, 0x08, 0x00, 0x80, 0x0f, 0x00, 0x00, 0x02, 0x00 };
