#define _width 29
#define _height 20
static char _bits[] = {
 0x00,0x40,0x00,0x00,0x00,0xf0,0x01,0x00,0x00,0xf0,0x01,0x00,0x00,0x10,0x01,
 0x00,0x00,0xf0,0x01,0x00,0x00,0xf0,0x01,0x00,0x00,0x10,0x01,0x00,0x00,0xf0,
 0x01,0x00,0xfe,0xff,0xff,0x0f,0x92,0x48,0x22,0x09,0x93,0x48,0x22,0x19,0x92,
 0x48,0x22,0x09,0xfe,0xff,0xff,0x0f,0x80,0x08,0x22,0x00,0x80,0x08,0x22,0x00,
 0x80,0x0f,0x3e,0x00,0x80,0x08,0x22,0x00,0x80,0x08,0x22,0x00,0x80,0x0f,0x3e,
 0x00,0x00,0x02,0x08,0x00 };
