#define HeatFlowGain_width 19
#define HeatFlowGain_height 19
static unsigned char HeatFlowGain_bits[] = {
   0x00, 0x02, 0x00, 0x80, 0x08, 0x00, 0x80, 0x0f, 0x00, 0x80, 0x08, 0x00,
   0x00, 0x02, 0x00, 0x00, 0x00, 0x00, 0x00, 0x02, 0x00, 0x00, 0x00, 0x00,
   0xfe, 0xff, 0x03, 0xb6, 0x48, 0x02, 0xb7, 0x48, 0x06, 0xb6, 0x48, 0x02,
   0xfe, 0xff, 0x03, 0x00, 0x00, 0x00, 0x00, 0x00, 0x00, 0x00, 0x00, 0x00,
   0x00, 0x00, 0x00, 0x00, 0x00, 0x00, 0x00, 0x00, 0x00 };
