#define _width 19
#define _height 24
static char _bits[] = {
 0x00,0x02,0x00,0x00,0x07,0x00,0x00,0x07,0x00,0x00,0x07,0x00,0x00,0x07,0x00,
 0x00,0x07,0x00,0x00,0x07,0x00,0x00,0x07,0x00,0x00,0x07,0x00,0x80,0x0f,0x00,
 0xff,0xff,0x07,0x80,0x0f,0x00,0x00,0x07,0x00,0x00,0x00,0x00,0x3e,0x00,0x00,
 0x08,0x00,0x00,0x08,0x00,0x00,0x08,0x00,0x00,0x08,0x00,0x00,0x08,0x00,0x00,
 0x08,0x00,0x00,0x08,0x00,0x00,0x00,0x00,0x00,0x00,0x00,0x00 };
^ 19 11 hflow
^ 10 1 hflow
^ 1 11 hflow
