#define _width 25
#define _height 25
static char _bits[] = {
 0x00,0x10,0x00,0x00,0x00,0x00,0x00,0x00,0x00,0x10,0x00,0x00,0x00,0x00,0x00,
 0x00,0x00,0x10,0x00,0x00,0x00,0x00,0x00,0x00,0x00,0x10,0x00,0x00,0x00,0x00,
 0x00,0x00,0xc0,0x10,0x06,0x00,0xc0,0x01,0x07,0x00,0x80,0xd7,0x03,0x00,0x00,
 0xfe,0x00,0x00,0xff,0xff,0xff,0x01,0x00,0xfe,0x00,0x00,0x80,0xc7,0x03,0x00,
 0xc0,0x01,0x07,0x00,0xc0,0x00,0x06,0x00,0x00,0x00,0x00,0x00,0x00,0x00,0x00,
 0x00,0x00,0x00,0x00,0x00,0x00,0x00,0x00,0x00,0x00,0x00,0x00,0x00,0x00,0x00,
 0x00,0x00,0x00,0x00,0x00,0x00,0x00,0x00,0x00,0x00 };
