#define _width 33
#define _height 28
static char _bits[] = {
 0x00,0x00,0x00,0x00,0x00,0x80,0xff,0xff,0x03,0x00,0x40,0x00,0x00,0x04,0x00,
 0x20,0x10,0x52,0x08,0x00,0x90,0x28,0x00,0x11,0x00,0x50,0x11,0x24,0x14,0x00,
 0x90,0x00,0x02,0x10,0x00,0x10,0x08,0x40,0x12,0x00,0x10,0x14,0x08,0x18,0x00,
 0x9f,0x08,0x80,0xf0,0x01,0x50,0x01,0xff,0x1f,0x00,0x90,0x00,0xb5,0x16,0x00,
 0x10,0x00,0xaf,0x1f,0x00,0x10,0x04,0xf9,0x1d,0x00,0x10,0x0a,0xac,0x12,0x00,
 0x10,0x04,0xf3,0x1d,0x00,0x20,0x00,0x5d,0x0b,0x00,0x40,0x00,0x72,0x05,0x00,
 0x80,0xff,0xff,0x03,0x00,0x00,0x00,0x01,0x00,0x00,0x00,0x80,0x03,0x00,0x00,
 0x00,0x80,0x03,0x00,0x00,0x00,0x40,0x05,0x00,0x00,0x00,0x00,0x01,0x00,0x00,
 0x00,0x00,0x01,0x00,0x00,0x00,0x00,0x01,0x00,0x00,0x00,0x00,0x01,0x00,0x00,
 0x00,0x00,0x01,0x00,0x00 };
