#define _width 43
#define _height 32
static char _bits[] = {
 0x00,0x00,0x40,0x00,0x00,0x00,0x00,0x00,0xf0,0x01,0x00,0x00,0x00,0x00,0x10,
 0x01,0x00,0x00,0x00,0x00,0x10,0x01,0x00,0x00,0x00,0x00,0xf0,0x01,0x00,0x00,
 0x00,0x00,0x10,0x01,0x00,0x00,0x00,0x00,0x10,0x01,0x00,0x00,0x00,0x00,0xf0,
 0x01,0x00,0x00,0x00,0x00,0x08,0x02,0x00,0x00,0x00,0xfc,0xff,0xff,0x01,0x00,
 0x00,0x02,0x01,0x00,0x02,0x00,0x00,0x79,0x02,0x00,0x04,0x00,0x80,0x84,0x04,
 0x00,0x08,0x00,0x80,0x02,0x05,0x00,0x08,0x00,0xbf,0x02,0x05,0x00,0xe8,0x07,
 0x80,0x02,0x55,0x55,0x0d,0x00,0x80,0x02,0xad,0xaa,0x0a,0x00,0x80,0x84,0x54,
 0x55,0x0d,0x00,0x00,0x79,0xaa,0xaa,0x06,0x00,0x00,0x02,0x55,0x55,0x03,0x00,
 0x00,0xfc,0xff,0xff,0x01,0x00,0x00,0x00,0x00,0x00,0x00,0x00,0x00,0x00,0x00,
 0x00,0x00,0x00,0x00,0x00,0x02,0x00,0x00,0x00,0x00,0x00,0x01,0x00,0x00,0x00,
 0x00,0x80,0xff,0x0f,0x00,0x00,0x00,0x00,0x01,0x00,0x00,0x00,0x00,0x00,0x02,
 0x00,0x00,0x00,0x00,0x00,0x00,0x00,0x00,0x00,0x00,0x00,0x00,0x00,0x00,0x00,
 0x00,0x00,0x00,0x00,0x00,0x00,0x00,0x00,0x00,0x00,0x00,0x00 };
