#define PneumaticFlapperNozzleValve1_width 66
#define PneumaticFlapperNozzleValve1_height 57
static unsigned char PneumaticFlapperNozzleValve1_bits[] = {
   0x00, 0x00, 0x00, 0x00, 0x00, 0x00, 0x00, 0x00, 0x00, 0x00, 0x00, 0x00,
   0x00, 0x00, 0x00, 0x00, 0x00, 0x00, 0x00, 0x00, 0x00, 0x00, 0x00, 0x00,
   0x00, 0x00, 0x00, 0x00, 0x00, 0x00, 0x00, 0x00, 0x00, 0x00, 0x00, 0x00,
   0x00, 0x00, 0x00, 0x00, 0x00, 0x00, 0x00, 0x00, 0x00, 0x00, 0x00, 0x00,
   0x00, 0x00, 0x00, 0x00, 0x00, 0x00, 0x00, 0xfc, 0xff, 0xff, 0xff, 0xff,
   0xff, 0x0f, 0x00, 0x00, 0xac, 0xaa, 0xaa, 0xaa, 0xaa, 0xaa, 0x0a, 0x00,
   0x00, 0x54, 0x55, 0x55, 0x55, 0x55, 0x55, 0x0d, 0x00, 0x00, 0xac, 0xaa,
   0xaa, 0xaa, 0xaa, 0xaa, 0x0a, 0x00, 0x00, 0x54, 0xff, 0xff, 0x55, 0x55,
   0x55, 0x0d, 0x00, 0x00, 0xac, 0x01, 0x00, 0xab, 0xaa, 0xaa, 0x0a, 0x00,
   0x00, 0x54, 0x41, 0x00, 0x55, 0x55, 0x55, 0x0d, 0x00, 0x00, 0xac, 0x09,
   0x22, 0xab, 0xaa, 0xaa, 0x0a, 0x00, 0x00, 0x54, 0x01, 0x00, 0x55, 0x55,
   0x55, 0x0d, 0x00, 0xc0, 0xff, 0xff, 0x1f, 0xab, 0xaa, 0xaa, 0x0a, 0x00,
   0x40, 0x00, 0x00, 0x10, 0x55, 0x55, 0x55, 0x0d, 0x00, 0x40, 0x55, 0x55,
   0x15, 0xab, 0xaa, 0xaa, 0x06, 0x00, 0x40, 0x00, 0x00, 0x50, 0x55, 0x55,
   0x55, 0x03, 0x00, 0x40, 0x55, 0x55, 0x15, 0xff, 0xff, 0xff, 0x01, 0x00,
   0x40, 0x00, 0x00, 0x10, 0x00, 0x00, 0x00, 0x00, 0x00, 0x40, 0x55, 0x55,
   0x15, 0x10, 0x08, 0x01, 0x00, 0x00, 0x40, 0x00, 0x00, 0x90, 0x00, 0x00,
   0x40, 0x04, 0x00, 0x40, 0x55, 0x55, 0x15, 0x80, 0x00, 0x00, 0x00, 0x00,
   0x40, 0x00, 0x00, 0x10, 0x08, 0x00, 0x10, 0x00, 0x00, 0x40, 0x55, 0x55,
   0x15, 0x00, 0x08, 0x01, 0x00, 0x00, 0x7e, 0x00, 0x00, 0xf0, 0x1f, 0x02,
   0x88, 0xf8, 0x01, 0x42, 0x55, 0x55, 0x15, 0x10, 0x03, 0x0c, 0x08, 0x01,
   0x43, 0x00, 0x00, 0x50, 0x95, 0x7f, 0xfe, 0x09, 0x03, 0x42, 0x55, 0x55,
   0x15, 0x10, 0x03, 0x0c, 0x08, 0x01, 0x7e, 0x00, 0x00, 0xf0, 0x1f, 0x42,
   0x08, 0xf8, 0x01, 0x40, 0x55, 0x55, 0x15, 0x00, 0x00, 0x01, 0x00, 0x00,
   0x40, 0x00, 0x00, 0x10, 0x10, 0x08, 0x90, 0x00, 0x00, 0x40, 0x55, 0x55,
   0x95, 0x00, 0x00, 0x00, 0x00, 0x00, 0x40, 0x00, 0x00, 0x10, 0x00, 0x41,
   0x00, 0x00, 0x00, 0x40, 0x55, 0x55, 0x15, 0x08, 0x00, 0x40, 0x04, 0x00,
   0x40, 0x00, 0x00, 0x10, 0x00, 0x00, 0x04, 0x00, 0x00, 0x40, 0x55, 0x55,
   0x15, 0xff, 0xff, 0xf1, 0x01, 0x00, 0x40, 0x00, 0x00, 0x10, 0x55, 0x55,
   0x51, 0x03, 0x00, 0x40, 0x55, 0x55, 0x15, 0xab, 0xaa, 0xb5, 0x06, 0x00,
   0x40, 0x00, 0x00, 0x10, 0x55, 0x55, 0x51, 0x0d, 0x00, 0xc0, 0xff, 0xff,
   0x1f, 0xab, 0xaa, 0xb1, 0x0a, 0x00, 0x00, 0x54, 0x01, 0x40, 0x55, 0x55,
   0x55, 0x0d, 0x00, 0x00, 0xac, 0x41, 0x00, 0xab, 0xaa, 0xb1, 0x0a, 0x00,
   0x00, 0x54, 0x09, 0x08, 0x55, 0x55, 0x51, 0x0d, 0x00, 0x00, 0xac, 0x01,
   0x00, 0xab, 0xaa, 0xb1, 0x0a, 0x00, 0x00, 0x54, 0xbf, 0xfe, 0x55, 0x55,
   0x55, 0x0d, 0x00, 0x00, 0xac, 0x2a, 0xaa, 0xaa, 0xaa, 0xb1, 0x0a, 0x00,
   0x00, 0x54, 0x35, 0x56, 0x55, 0x55, 0x51, 0x0d, 0x00, 0x00, 0xac, 0xaa,
   0xaa, 0xaa, 0xaa, 0xb5, 0x0a, 0x00, 0x00, 0xfc, 0xbf, 0xfe, 0xff, 0xff,
   0xf5, 0x0f, 0x00, 0x00, 0x00, 0x80, 0x00, 0x00, 0x00, 0x04, 0x00, 0x00,
   0x00, 0x00, 0x80, 0x00, 0x00, 0x00, 0x04, 0x00, 0x00, 0x00, 0x00, 0x80,
   0x00, 0x00, 0x00, 0x04, 0x00, 0x00, 0x00, 0x00, 0x80, 0x00, 0x00, 0x00,
   0x04, 0x00, 0x00, 0x00, 0x00, 0x80, 0x00, 0x00, 0x00, 0x04, 0x00, 0x00,
   0x00, 0x00, 0x80, 0x00, 0x00, 0x00, 0x04, 0x00, 0x00 };
