#define PneumaticPiston_width 66
#define PneumaticPiston_height 57
static unsigned char PneumaticPiston_bits[] = {
   0x00, 0x00, 0x00, 0x00, 0x00, 0x00, 0x00, 0x00, 0x00, 0x00, 0x00, 0x00,
   0x00, 0x00, 0x00, 0x00, 0x00, 0x00, 0x00, 0x00, 0x00, 0x00, 0x00, 0x00,
   0x00, 0x00, 0x00, 0x00, 0x00, 0x00, 0x00, 0x00, 0x00, 0x00, 0x00, 0x00,
   0x00, 0x00, 0x00, 0x00, 0x00, 0x00, 0x00, 0x00, 0x00, 0x00, 0x00, 0x00,
   0x00, 0x00, 0x00, 0x00, 0x00, 0x00, 0x00, 0xfc, 0xff, 0xff, 0xff, 0xff,
   0xff, 0x0f, 0x00, 0x00, 0xac, 0xaa, 0xaa, 0xaa, 0xaa, 0xaa, 0x0a, 0x00,
   0x00, 0x54, 0x55, 0x55, 0x55, 0x55, 0x55, 0x0d, 0x00, 0x00, 0xac, 0xaa,
   0xaa, 0xaa, 0xaa, 0xaa, 0x0a, 0x00, 0x00, 0x54, 0x55, 0x55, 0x55, 0x55,
   0x55, 0x0d, 0x00, 0x00, 0xac, 0xaa, 0xaa, 0xaa, 0xaa, 0xaa, 0x0a, 0x00,
   0x00, 0x54, 0x55, 0x55, 0x55, 0x55, 0x55, 0x0d, 0x00, 0x00, 0xfc, 0xff,
   0xff, 0xff, 0xff, 0xff, 0x0f, 0x00, 0x00, 0x00, 0x04, 0x0c, 0x00, 0x00,
   0x00, 0x00, 0x00, 0x00, 0x00, 0x54, 0x0d, 0x08, 0x00, 0x02, 0x00, 0x00,
   0x00, 0x00, 0x04, 0x8c, 0x00, 0x02, 0x20, 0x00, 0x00, 0x00, 0x00, 0x54,
   0xcd, 0x00, 0x00, 0x00, 0x00, 0x00, 0x00, 0x00, 0x04, 0xec, 0x1f, 0x80,
   0x00, 0x02, 0x00, 0x00, 0x00, 0x54, 0xcd, 0x00, 0x10, 0x00, 0x00, 0x00,
   0x00, 0x00, 0x04, 0x8c, 0x00, 0x00, 0x08, 0x00, 0x00, 0x00, 0x00, 0x54,
   0x0d, 0x00, 0x01, 0x00, 0x00, 0x00, 0x00, 0x00, 0x04, 0x0c, 0x00, 0x00,
   0x44, 0x04, 0x00, 0x00, 0x00, 0x54, 0x0d, 0x02, 0x40, 0x00, 0x00, 0x00,
   0xc0, 0xff, 0x07, 0x0c, 0x20, 0x00, 0x00, 0x00, 0x00, 0x40, 0x00, 0x54,
   0x0d, 0x00, 0x00, 0x00, 0x00, 0x00, 0x7e, 0x55, 0x05, 0x8c, 0x00, 0x02,
   0x08, 0xf8, 0x01, 0x42, 0x00, 0x54, 0xcd, 0x00, 0x03, 0x0c, 0x08, 0x01,
   0x43, 0x55, 0x05, 0xec, 0x9f, 0x7f, 0xfe, 0x09, 0x03, 0x42, 0x00, 0x54,
   0xcd, 0x00, 0x03, 0x0c, 0x08, 0x01, 0x7e, 0x55, 0x05, 0x8c, 0x00, 0x02,
   0x08, 0xf8, 0x01, 0x40, 0x00, 0x54, 0x0d, 0x04, 0x00, 0x80, 0x00, 0x00,
   0xc0, 0xff, 0x07, 0x0c, 0x00, 0x10, 0x00, 0x00, 0x00, 0x00, 0x00, 0x54,
   0x8d, 0x10, 0x01, 0x04, 0x00, 0x00, 0x00, 0x00, 0x04, 0x0c, 0x00, 0x00,
   0x00, 0x00, 0x00, 0x00, 0x00, 0x54, 0x0d, 0x00, 0x00, 0x40, 0x04, 0x00,
   0x00, 0x00, 0x04, 0x8c, 0x40, 0x40, 0x04, 0x00, 0x00, 0x00, 0x00, 0x54,
   0xcd, 0x00, 0x02, 0x00, 0x00, 0x00, 0x00, 0x00, 0x04, 0xec, 0x1f, 0x00,
   0x00, 0x00, 0x00, 0x00, 0x00, 0x54, 0xcd, 0x00, 0x00, 0x40, 0x00, 0x00,
   0x00, 0x00, 0x04, 0x8c, 0x00, 0x88, 0x08, 0x04, 0x00, 0x00, 0x00, 0x54,
   0x0d, 0x42, 0x00, 0x00, 0x00, 0x00, 0x00, 0x00, 0x04, 0x0c, 0x00, 0x00,
   0x00, 0x00, 0x00, 0x00, 0xfc, 0xff, 0xff, 0xff, 0xff, 0xf1, 0x0f, 0x00,
   0x00, 0x54, 0x55, 0x55, 0x55, 0x55, 0x51, 0x0d, 0x00, 0x00, 0xac, 0xaa,
   0xaa, 0xaa, 0xaa, 0xb1, 0x0a, 0x00, 0x00, 0x54, 0x55, 0x55, 0x55, 0x55,
   0x55, 0x0d, 0x00, 0x00, 0xac, 0xaa, 0xaa, 0xaa, 0xaa, 0xb1, 0x0a, 0x00,
   0x00, 0x54, 0x55, 0x55, 0x55, 0x55, 0x51, 0x0d, 0x00, 0x00, 0xac, 0xaa,
   0xaa, 0xaa, 0xaa, 0xb5, 0x0a, 0x00, 0x00, 0xfc, 0xff, 0xff, 0xff, 0xff,
   0xf5, 0x0f, 0x00, 0x00, 0x00, 0x00, 0x00, 0x00, 0x00, 0x04, 0x00, 0x00,
   0x00, 0x00, 0x00, 0x00, 0x00, 0x00, 0x04, 0x00, 0x00, 0x00, 0x00, 0x00,
   0x00, 0x00, 0x00, 0x04, 0x00, 0x00, 0x00, 0x00, 0x00, 0x00, 0x00, 0x00,
   0x04, 0x00, 0x00, 0x00, 0x00, 0x00, 0x00, 0x00, 0x00, 0x04, 0x00, 0x00,
   0x00, 0x00, 0x00, 0x00, 0x00, 0x00, 0x04, 0x00, 0x00 };
