#define _width 33
#define _height 27
static char _bits[] = {
 0x00,0x00,0x00,0x00,0x00,0x00,0x00,0x00,0x00,0x00,0x00,0x00,0x00,0x00,0x00,
 0x00,0x00,0xc0,0x01,0x00,0x00,0x00,0x30,0x01,0x00,0x00,0x00,0x0c,0x39,0x00,
 0x00,0x00,0x03,0x49,0x00,0x00,0xc0,0x00,0x49,0x00,0x00,0x30,0x00,0x39,0x00,
 0x00,0x0c,0x00,0x29,0x00,0x00,0x03,0x00,0x49,0x00,0x00,0x01,0x00,0x01,0x00,
 0x00,0x01,0x00,0x01,0x00,0xff,0x55,0x55,0xff,0x01,0x00,0x01,0x00,0x01,0x00,
 0x00,0x01,0x00,0x01,0x00,0x00,0x03,0x00,0x2b,0x00,0x00,0x0c,0x00,0x01,0x00,
 0x00,0x30,0x00,0x21,0x00,0x00,0xc0,0x00,0x01,0x00,0x00,0x00,0x03,0x21,0x00,
 0x00,0x00,0x0c,0x01,0x00,0x00,0x00,0x30,0x21,0x00,0x00,0x00,0xc0,0x01,0x00,
 0x00,0x00,0x00,0x20,0x00,0x00,0x00,0x00,0x00,0x00,0x00,0x00,0x00,0x20,0x00 };
