#define _width 25
#define _height 49
static char _bits[] = {
 0x00,0x10,0x00,0x00,0x00,0x10,0x00,0x00,0x00,0x10,0x00,0x00,0x00,0x10,0x00,
 0x00,0x00,0x38,0x00,0x00,0x00,0x28,0x00,0x00,0x00,0x44,0x00,0x00,0x00,0x44,
 0x00,0x00,0x00,0xba,0x00,0x00,0x00,0xff,0x01,0x00,0xc0,0xef,0x07,0x00,0xe0,
 0x00,0x0e,0x00,0x70,0x00,0x1c,0x00,0x30,0x10,0x18,0x00,0x18,0x38,0x30,0x00,
 0x18,0x10,0x30,0x00,0x18,0x00,0x30,0x00,0x1c,0x7e,0x70,0x00,0x0c,0x92,0x60,
 0x00,0x1c,0x92,0x70,0x00,0x18,0x92,0x30,0x00,0x18,0x92,0x30,0x00,0x18,0x00,
 0x30,0x00,0x30,0x00,0x18,0x00,0x70,0x00,0x1c,0x00,0xe0,0x00,0x0e,0x00,0xc0,
 0xef,0x07,0x00,0x00,0xff,0x01,0x00,0x00,0x38,0xe0,0x00,0xc0,0xff,0x27,0x01,
 0xc0,0xff,0x27,0x01,0xc0,0x00,0xe6,0x00,0xc0,0x00,0xa6,0x00,0xc0,0x00,0x26,
 0x01,0xc0,0x18,0x06,0x00,0xc0,0x60,0x06,0x00,0xff,0xfe,0xfe,0x01,0xc0,0x60,
 0x06,0x00,0xc0,0x18,0x06,0x00,0xc0,0x00,0x06,0x00,0xc0,0x00,0x06,0x00,0xc0,
 0x00,0x06,0x00,0xc0,0xff,0x07,0x00,0xc0,0xff,0x07,0x00,0x00,0x00,0x00,0x00,
 0x00,0x00,0x00,0x00,0x00,0x00,0x00,0x00,0x00,0x00,0x00,0x00,0x00,0x00,0x00,
 0x00 };
