#define _width 43
#define _height 31
static char _bits[] = {
 0x00,0x00,0x00,0x00,0x00,0x00,0x00,0x00,0x00,0x00,0x00,0x00,0x00,0x00,0x00,
 0x00,0x00,0x00,0x00,0x00,0x00,0x00,0x00,0x00,0x00,0x00,0x00,0x00,0x00,0x00,
 0x00,0x00,0x00,0x00,0x00,0x00,0x00,0x00,0x00,0x00,0x00,0x00,0x00,0x00,0x00,
 0x00,0xc0,0x01,0x00,0x00,0x00,0x00,0x40,0x02,0x00,0x00,0xff,0x07,0x40,0x02,
 0x00,0xe0,0x00,0x38,0xc0,0x01,0x00,0x18,0x00,0xc0,0x40,0x01,0x00,0x06,0x00,
 0x00,0x43,0x02,0x00,0x01,0x00,0x00,0x04,0x00,0x9f,0x00,0x54,0x01,0xc8,0x07,
 0x40,0x80,0xaa,0x0a,0x10,0x00,0x20,0x40,0x55,0x15,0x20,0x00,0xf0,0xa3,0xaa,
 0x2a,0x7e,0x00,0x08,0x54,0x55,0x55,0x81,0x00,0xe4,0xa9,0xaa,0xaa,0x3c,0x01,
 0x12,0x52,0xfd,0x55,0x42,0x02,0x0a,0xb4,0x03,0x6e,0x81,0x02,0x0a,0xd4,0x00,
 0x58,0x81,0x02,0x0a,0x74,0x00,0x70,0x81,0x02,0x0a,0x34,0x00,0x60,0x81,0x02,
 0x12,0x12,0x00,0x40,0x42,0x02,0xe4,0x09,0x00,0x80,0x3c,0x01,0x08,0x04,0x00,
 0x00,0x81,0x00,0xf0,0x03,0x00,0x00,0x7e,0x00,0x00,0x00,0x00,0x00,0x00,0x00,
 0x00,0x00,0x00,0x00,0x00,0x00 };
