#define _width 43
#define _height 33
static char _bits[] = {
 0x00,0x00,0x00,0x00,0x00,0x00,0x00,0x00,0x00,0x00,0x00,0x00,0x00,0x00,0x00,
 0x00,0x00,0x00,0x00,0x00,0x00,0x00,0x00,0x00,0x00,0x00,0x00,0x00,0x00,0x00,
 0x00,0x00,0x00,0x00,0x00,0x00,0x00,0x00,0x00,0x00,0xc0,0x01,0x00,0x00,0x00,
 0x00,0x40,0x02,0x00,0x00,0x00,0x00,0x40,0x02,0x00,0xfc,0xff,0xff,0xc1,0x01,
 0x00,0x02,0xa1,0xaa,0x42,0x01,0x00,0x79,0xe2,0xee,0x44,0x02,0x80,0x84,0x44,
 0x44,0x08,0x00,0x80,0x02,0x45,0x44,0x08,0x00,0xbf,0x02,0x05,0x00,0xe8,0x07,
 0x80,0x02,0x05,0x00,0x08,0x00,0x80,0x02,0x25,0x22,0x08,0x00,0x80,0x84,0x24,
 0x22,0x08,0x00,0x00,0x79,0x72,0x77,0x04,0x00,0x00,0x02,0x51,0x55,0x02,0x00,
 0x00,0xfc,0xff,0xff,0x01,0x00,0x00,0x00,0x00,0x00,0x00,0x00,0x00,0x00,0x00,
 0x00,0x00,0x00,0x00,0x00,0xc0,0x01,0x00,0x00,0x00,0x00,0x60,0x02,0x00,0x00,
 0x00,0x00,0x60,0x00,0x00,0x00,0x00,0x00,0x60,0x20,0x00,0x00,0x00,0x00,0x60,
 0x20,0x00,0x00,0x00,0x00,0x60,0x3a,0x00,0x00,0x00,0x00,0xc0,0x29,0x00,0x00,
 0x00,0x00,0x00,0x38,0x00,0x00,0x00,0x00,0x00,0x00,0x00,0x00,0x00,0x00,0x00,
 0x00,0x00,0x00 };
