#define _width 43
#define _height 33
static char _bits[] = {
 0x00,0x00,0x00,0x00,0x00,0x00,0x00,0x00,0x00,0x00,0x00,0x00,0x00,0x00,0x00,
 0x00,0x00,0x00,0x00,0x00,0x00,0x00,0x00,0x00,0x00,0x00,0x00,0x00,0x00,0x00,
 0x00,0x00,0x00,0x00,0x00,0x00,0x00,0x00,0x00,0x00,0xc0,0x01,0x00,0x00,0x00,
 0x00,0x40,0x02,0x00,0x00,0x00,0x00,0x40,0x02,0x00,0xfc,0xbf,0xbb,0xc1,0x01,
 0x00,0x02,0xa1,0xaa,0x42,0x01,0x00,0x79,0xe2,0xee,0x44,0x02,0x80,0x84,0x44,
 0x44,0x08,0x00,0x80,0x02,0x05,0x00,0x08,0x00,0xbf,0x02,0x55,0x55,0xed,0x07,
 0x80,0x02,0xad,0xaa,0x0a,0x00,0x80,0x02,0x55,0x55,0x0d,0x00,0x80,0x84,0xac,
 0xaa,0x0a,0x00,0x00,0x79,0x76,0x77,0x05,0x00,0x00,0x02,0x5b,0xd5,0x02,0x00,
 0x00,0xfc,0xdf,0xdd,0x01,0x00,0x00,0x00,0x00,0x00,0x00,0x00,0x00,0x00,0x00,
 0x00,0x00,0x00,0x00,0x00,0xc0,0x01,0x00,0x00,0x00,0x00,0x60,0x02,0x00,0x00,
 0x00,0x00,0x60,0x00,0x00,0x00,0x00,0x00,0x60,0x20,0x00,0x00,0x00,0x00,0x60,
 0x20,0x00,0x00,0x00,0x00,0x60,0x3a,0x00,0x00,0x00,0x00,0xc0,0x29,0x00,0x00,
 0x00,0x00,0x00,0x38,0x00,0x00,0x00,0x00,0x00,0x00,0x00,0x00,0x00,0x00,0x00,
 0x00,0x00,0x00 };
