#define _width 43
#define _height 38
static char _bits[] = {
 0x00,0x00,0x00,0x00,0x00,0x00,0x00,0x00,0x00,0x00,0x00,0x00,0x00,0x00,0x00,
 0x00,0x00,0x00,0x00,0x00,0x00,0x00,0x00,0x00,0x00,0x00,0x00,0x00,0x00,0x00,
 0x00,0x00,0x00,0x00,0x00,0x00,0x00,0x00,0x00,0x00,0xc0,0x01,0x00,0x00,0x00,
 0x00,0x40,0x02,0x00,0x00,0x00,0x00,0x40,0x02,0x00,0xfc,0xff,0xff,0xc1,0x01,
 0x00,0x02,0x01,0x00,0x42,0x01,0x00,0x79,0x02,0x00,0x44,0x02,0x80,0x84,0x04,
 0x00,0x08,0x00,0x80,0x02,0x05,0x00,0x08,0x00,0xbf,0x02,0x05,0x00,0xe8,0x07,
 0x80,0x02,0x55,0x15,0x08,0x00,0x80,0x02,0xad,0x2a,0x08,0x00,0x80,0x84,0x54,
 0x15,0x08,0x00,0x00,0x79,0xaa,0x2a,0x08,0x00,0x00,0x02,0x55,0x15,0x08,0x00,
 0x00,0xfc,0xff,0x2a,0x08,0x00,0x00,0x00,0x00,0x15,0x08,0x00,0x00,0x00,0x00,
 0x2b,0x08,0x00,0x00,0x00,0x00,0x15,0x08,0x00,0x00,0x00,0x00,0xfb,0x09,0x00,
 0x00,0x00,0x00,0x05,0x0a,0x00,0x00,0x00,0x00,0xf3,0x0c,0x00,0x00,0x00,0x00,
 0x09,0x09,0x00,0x00,0x00,0x00,0x05,0x0a,0x00,0x00,0x00,0x00,0x05,0x0a,0x00,
 0x00,0x00,0x00,0x05,0x0a,0x00,0x00,0x00,0x00,0x05,0x0a,0x00,0x00,0x00,0x00,
 0x09,0x09,0x00,0x00,0x00,0x00,0xf2,0x04,0x00,0x00,0x00,0x00,0x04,0x02,0x00,
 0x00,0x00,0x00,0xf8,0x01,0x00,0x00,0x00,0x00,0x00,0x00,0x00,0x00,0x00,0x00,
 0x00,0x00,0x00 };
