#define _width 27
#define _height 25
static char _bits[] = {
 0x00,0x20,0x00,0x00,0x00,0x00,0x00,0x00,0x00,0x20,0x00,0x00,0x00,0x00,0x00,
 0x00,0x00,0x20,0xe0,0x00,0x00,0x00,0x20,0x01,0x00,0x70,0x20,0x01,0x00,0x51,
 0xe4,0x00,0x00,0x53,0xa6,0x00,0x00,0x77,0x27,0x01,0x00,0xad,0x05,0x00,0x00,
 0xf9,0x04,0x00,0xff,0x71,0xfc,0x07,0x00,0xd9,0x04,0x00,0x00,0x8d,0x05,0x00,
 0x00,0x07,0x07,0x00,0x00,0x03,0x06,0x00,0x00,0x01,0x04,0x00,0x00,0x00,0x00,
 0x00,0x00,0x00,0x00,0x00,0x00,0x00,0x00,0x00,0x00,0x00,0x00,0x00,0x00,0x00,
 0x00,0x00,0x00,0x00,0x00,0x00,0x00,0x00,0x00,0x00 };
