#define _width 27
#define _height 25
static char _bits[] = {
 0x00,0x00,0x00,0x00,0x00,0x00,0x00,0x00,0x00,0x00,0x00,0x00,0x00,0x00,0x00,
 0x00,0x00,0x00,0xe0,0x00,0x00,0x00,0x20,0x01,0x00,0x00,0x20,0x01,0x00,0xf8,
 0xe0,0x00,0x00,0x8c,0xa1,0x00,0x00,0x76,0x23,0x01,0x00,0xab,0x06,0x00,0x00,
 0x55,0x05,0x00,0xff,0xad,0xfd,0x07,0x00,0x55,0x05,0x00,0x00,0xab,0x06,0x00,
 0x00,0x76,0x03,0x00,0x00,0x8c,0x01,0x00,0x00,0xf8,0x00,0x00,0x00,0x00,0x00,
 0x00,0x00,0x00,0x00,0x00,0x00,0x00,0x00,0x00,0x00,0x00,0x00,0x00,0x00,0x00,
 0x00,0x00,0x00,0x00,0x00,0x00,0x00,0x00,0x00,0x00 };
