#define _width 33
#define _height 27
static char _bits[] = {
 0x08,0x00,0x00,0x00,0x00,0x2a,0x00,0x00,0x00,0x00,0x36,0x00,0x00,0x00,0x00,
 0x2a,0x07,0x00,0x00,0x00,0x08,0x19,0x00,0x00,0x00,0x08,0x61,0x00,0x38,0x00,
 0x08,0x81,0x01,0x48,0x00,0x08,0x01,0x06,0x48,0x00,0x08,0x01,0x18,0x38,0x00,
 0x08,0x01,0x60,0x28,0x00,0xf8,0x01,0x80,0x49,0x00,0x00,0x01,0x00,0x01,0x00,
 0x00,0x01,0x00,0x01,0x00,0xff,0x55,0x55,0xff,0x01,0x00,0x01,0x00,0x01,0x00,
 0x00,0x01,0x00,0x01,0x00,0xa8,0x01,0x80,0x01,0x00,0x00,0x01,0x60,0x00,0x00,
 0x08,0x01,0x18,0x00,0x00,0x00,0x01,0x06,0x00,0x00,0x08,0x81,0x01,0x00,0x00,
 0x00,0x61,0x00,0x00,0x00,0x08,0x19,0x00,0x00,0x00,0x00,0x07,0x00,0x00,0x00,
 0x08,0x00,0x00,0x00,0x00,0x00,0x00,0x00,0x00,0x00,0x08,0x00,0x00,0x00,0x00 };
