#define _width 29
#define _height 30
static char _bits[] = {
 0x00,0x40,0x00,0x00,0x00,0x40,0x00,0x00,0x00,0x40,0x00,0x00,0x00,0x40,0x00,
 0x00,0x00,0x00,0x00,0x00,0x00,0x00,0x00,0x00,0x00,0x40,0x00,0x00,0xe0,0xe0,
 0xe0,0x00,0x60,0xf0,0xc1,0x00,0xa0,0x40,0xa0,0x00,0x00,0x41,0x10,0x00,0x00,
 0x42,0x08,0x00,0x00,0x44,0x04,0x00,0x00,0x44,0x04,0x00,0x00,0x44,0x04,0x00,
 0x00,0x00,0x00,0x00,0x00,0x00,0x00,0x00,0xfc,0xff,0xff,0x07,0x24,0x49,0x92,
 0x04,0x94,0xf4,0x49,0x06,0x4c,0x12,0x25,0x05,0xfc,0x1f,0xff,0x07,0x00,0xf0,
 0x01,0x00,0x00,0x10,0x01,0x00,0x00,0x10,0x01,0x00,0x00,0xf0,0x01,0x00,0x00,
 0x10,0x01,0x00,0x00,0x10,0x01,0x00,0x00,0xf0,0x01,0x00,0x00,0x40,0x00,0x00 };
