#define _width 51
#define _height 31
static char _bits[] = {
 0x00,0x00,0x00,0x02,0x00,0x00,0x00,0x00,0x00,0x80,0x0f,0x00,0x00,0x00,0x00,
 0x00,0x80,0x08,0x00,0x00,0x00,0x00,0x00,0x80,0x08,0x00,0x00,0x00,0x00,0x00,
 0x80,0x0f,0x00,0x00,0x00,0x00,0x00,0x80,0x08,0x00,0x00,0x00,0x00,0xfe,0xff,
 0xf8,0xff,0x03,0x00,0x00,0x01,0x80,0x4f,0x40,0x04,0x00,0x80,0x08,0x02,0x00,
 0x08,0x08,0x00,0x40,0x00,0x88,0x24,0x00,0x12,0x00,0x40,0x10,0x02,0x80,0x50,
 0x10,0x00,0x48,0x82,0x40,0x12,0x00,0x11,0x02,0x5f,0x40,0x04,0x00,0x09,0xd0,
 0x07,0x48,0xa0,0x10,0x4a,0x40,0x14,0x02,0xc0,0x57,0x40,0x00,0x02,0x10,0x00,
 0xff,0xad,0x8a,0xa8,0x48,0xf0,0x07,0xc0,0x57,0x20,0x00,0x02,0x11,0x00,0x40,
 0xa0,0x88,0xa4,0x28,0x14,0x00,0x40,0x48,0x22,0x09,0x84,0x12,0x00,0x40,0x85,
 0x48,0x20,0x11,0x14,0x00,0xc0,0x10,0x10,0x4a,0x44,0x11,0x00,0x40,0xa6,0x82,
 0x10,0x11,0x14,0x00,0x80,0x00,0x29,0x45,0x04,0x09,0x00,0x00,0x49,0x04,0x10,
 0x21,0x04,0x00,0x00,0xfe,0xff,0xff,0xff,0x03,0x00,0x00,0x00,0x00,0x00,0x00,
 0x00,0x00,0x00,0x00,0x00,0x02,0x00,0x00,0x00,0x00,0x00,0x00,0x02,0x00,0x00,
 0x00,0x00,0x00,0x00,0x02,0x00,0x00,0x00,0x00,0x00,0x00,0x02,0x00,0x00,0x00,
 0x00,0x00,0x00,0x02,0x00,0x00,0x00 };
