#define _width 21
#define _height 49
static char _bits[] = {
 0x00,0x04,0x00,0x00,0x04,0x00,0x00,0x04,0x00,0x00,0x04,0x00,0x00,0x0e,0x00,
 0x00,0x0a,0x00,0x00,0x11,0x00,0x00,0x11,0x00,0x80,0x2e,0x00,0xc0,0x7f,0x00,
 0xf0,0xfb,0x01,0x38,0x80,0x03,0x1c,0x00,0x07,0x0c,0x00,0x06,0x06,0x00,0x0c,
 0x06,0x00,0x0c,0x86,0x00,0x0c,0x87,0x00,0x1c,0x83,0x3f,0x18,0x87,0x00,0x1c,
 0x86,0x00,0x0c,0x06,0x00,0x0c,0x06,0x00,0x0c,0x0c,0x00,0x06,0x1c,0x00,0x07,
 0x38,0x80,0x03,0xf0,0xff,0x01,0xc0,0x7f,0x00,0x00,0x1f,0x00,0x00,0x11,0x00,
 0x00,0x11,0x00,0x00,0x1f,0x00,0x00,0x11,0x00,0x00,0x11,0x00,0x00,0x1f,0x00,
 0x00,0x11,0x00,0x00,0x11,0x00,0xfe,0xff,0x0f,0x92,0x20,0x09,0x93,0x20,0x19,
 0x92,0x20,0x09,0xfe,0xff,0x0f,0x00,0x00,0x00,0x00,0x00,0x00,0x00,0x00,0x00,
 0x00,0x00,0x00,0x00,0x00,0x00,0x00,0x00,0x00,0x00,0x00,0x00 };
