#define _width 25
#define _height 37
static char _bits[] = {
 0x00,0x10,0x00,0x00,0x00,0x7c,0x00,0x00,0x00,0x44,0x00,0x00,0x00,0x44,0x00,
 0x00,0x00,0x7c,0x00,0x00,0x00,0x44,0x00,0x00,0x00,0x44,0x00,0x00,0x00,0x7c,
 0x00,0x00,0x00,0x44,0x00,0x00,0x00,0x44,0x00,0x00,0x00,0x7c,0x00,0x00,0x00,
 0x44,0x00,0x00,0x00,0x44,0x00,0x00,0x00,0x7c,0x00,0x00,0x00,0xff,0x01,0x00,
 0xc0,0xef,0x07,0x00,0xe0,0x00,0x0e,0x00,0x30,0x00,0x18,0x00,0x18,0x00,0x30,
 0x00,0x18,0x00,0x30,0x00,0x0c,0x00,0x60,0x00,0x0c,0x00,0x60,0x00,0x0c,0x02,
 0x60,0x00,0x0c,0x02,0x60,0x00,0x06,0xfe,0xc0,0x00,0x0c,0x02,0x60,0x00,0x0c,
 0x02,0x60,0x00,0x0c,0x00,0x60,0x00,0x0c,0x00,0x60,0x00,0x18,0x00,0x30,0x00,
 0x18,0x00,0x30,0x00,0x30,0x00,0x18,0x00,0xe0,0x00,0x0e,0x00,0xc0,0xef,0x07,
 0x00,0x00,0xff,0x01,0x00,0x00,0x10,0x00,0x00,0x00,0x00,0x00,0x00 };
