#define ThermalNode_width 37
#define ThermalNode_height 37
static unsigned char ThermalNode_bits[] = {
   0x00, 0x00, 0x00, 0x00, 0x00, 0x00, 0x00, 0x00, 0x00, 0x00, 0x00, 0x00,
   0x00, 0x00, 0x00, 0x00, 0x00, 0x00, 0x00, 0x00, 0x00, 0x00, 0x00, 0x00,
   0x00, 0xe0, 0xff, 0xff, 0xff, 0x00, 0x20, 0x49, 0x92, 0xa4, 0x00, 0xa0,
   0x24, 0x49, 0x92, 0x00, 0x60, 0x92, 0x24, 0xc9, 0x00, 0x20, 0x49, 0x92,
   0xa4, 0x00, 0xa0, 0x24, 0x49, 0x92, 0x00, 0x60, 0x92, 0x24, 0xc9, 0x00,
   0x20, 0x09, 0x00, 0xa4, 0x00, 0xa0, 0x04, 0x08, 0x90, 0x00, 0x60, 0xe2,
   0x0b, 0xc8, 0x00, 0x20, 0x81, 0x08, 0xa4, 0x00, 0xa0, 0x84, 0x68, 0x90,
   0x00, 0x60, 0x82, 0x88, 0xc8, 0x00, 0x20, 0x81, 0x88, 0xa4, 0x00, 0xa0,
   0x84, 0x88, 0x90, 0x00, 0x60, 0x82, 0x88, 0xc8, 0x00, 0x20, 0x01, 0x00,
   0xa4, 0x00, 0xa0, 0x04, 0x00, 0x90, 0x00, 0x60, 0x02, 0x00, 0xc8, 0x00,
   0x20, 0x49, 0x92, 0xa4, 0x00, 0xa0, 0x24, 0x49, 0x92, 0x00, 0x60, 0x92,
   0x24, 0xc9, 0x00, 0x20, 0x49, 0x92, 0xa4, 0x00, 0xa0, 0x24, 0x49, 0x92,
   0x00, 0x60, 0x92, 0x3f, 0xc9, 0x00, 0x20, 0x49, 0x91, 0xa4, 0x00, 0xe0,
   0xff, 0xf1, 0xff, 0x00, 0x00, 0x00, 0x1f, 0x00, 0x00, 0x00, 0x00, 0x11,
   0x00, 0x00, 0x00, 0x00, 0x11, 0x00, 0x00, 0x00, 0x00, 0x1f, 0x00, 0x00,
   0x00, 0x00, 0x04, 0x00, 0x00 };
