#define _width 37
#define _height 18
static char _bits[] = {
 0x00,0x00,0x00,0x00,0x00,0x80,0xff,0xff,0x3f,0x00,0x80,0x04,0x08,0x22,0x00,
 0x80,0x42,0x04,0x20,0x00,0x80,0x71,0xc0,0x21,0x00,0x80,0xfc,0x31,0x2e,0x00,
 0xfe,0x70,0x0e,0xe0,0x0f,0x92,0x40,0x40,0x20,0x09,0x93,0x04,0x20,0x20,0x19,
 0x92,0x02,0x90,0x20,0x09,0xfe,0xe1,0x80,0xe3,0x0f,0x80,0x1c,0xe3,0x2f,0x00,
 0x80,0x00,0x9c,0x23,0x00,0x80,0x04,0x80,0x30,0x00,0x80,0x82,0x00,0x28,0x00,
 0x80,0x41,0x10,0x24,0x00,0x80,0xff,0xff,0x3f,0x00,0x00,0x00,0x00,0x00,0x00 };
