#define TPipeJunction_width 19
#define TPipeJunction_height 21
static unsigned char TPipeJunction_bits[] = {
   0x00, 0x02, 0x00, 0x00, 0x02, 0x00, 0x00, 0x02, 0x00, 0x00, 0x02, 0x00,
   0x00, 0x02, 0x00, 0x00, 0x02, 0x00, 0x00, 0x07, 0x00, 0x00, 0x07, 0x00,
   0x00, 0x07, 0x00, 0xfc, 0x3f, 0x00, 0xff, 0xff, 0x07, 0xfc, 0x3f, 0x00,
   0x00, 0x00, 0x00, 0x00, 0x00, 0x00, 0x00, 0x00, 0x00, 0x00, 0x00, 0x00,
   0x00, 0x00, 0x00, 0x00, 0x00, 0x00, 0x00, 0x00, 0x00, 0x00, 0x00, 0x00,
   0x00, 0x00, 0x00 };
