#define TPipeJunction_01_width 43
#define TPipeJunction_01_height 32
static unsigned char TPipeJunction_01_bits[] = {
   0x00, 0x00, 0x20, 0x00, 0x00, 0x00, 0x00, 0x00, 0x20, 0x00, 0x00, 0x00,
   0x00, 0x00, 0x20, 0x00, 0x00, 0x00, 0x00, 0x00, 0x00, 0x00, 0x00, 0x00,
   0x00, 0x00, 0xf8, 0x00, 0x00, 0x00, 0x00, 0x00, 0x04, 0x01, 0x00, 0x00,
   0x00, 0x00, 0x72, 0x02, 0x00, 0x00, 0x00, 0x00, 0x89, 0x04, 0x00, 0x00,
   0x00, 0x00, 0x05, 0x05, 0x00, 0x00, 0x00, 0x00, 0x05, 0x05, 0x00, 0x00,
   0x00, 0x00, 0x05, 0x05, 0x00, 0x00, 0x00, 0x00, 0x89, 0x04, 0x00, 0x00,
   0x00, 0x00, 0x73, 0x06, 0x00, 0x00, 0x00, 0x00, 0x05, 0x05, 0x00, 0x00,
   0x00, 0x00, 0xf9, 0x06, 0x00, 0x00, 0x00, 0x00, 0x41, 0x05, 0x00, 0x00,
   0x00, 0x00, 0x81, 0x06, 0x00, 0x00, 0x00, 0xfc, 0x41, 0xfd, 0x01, 0x00,
   0x00, 0x06, 0x80, 0x02, 0x02, 0x00, 0x00, 0x03, 0x00, 0x00, 0x04, 0x00,
   0x80, 0x01, 0x00, 0x00, 0x08, 0x00, 0x80, 0x00, 0x00, 0x00, 0x08, 0x00,
   0xbf, 0x55, 0x55, 0x55, 0xed, 0x07, 0x80, 0xaa, 0xaa, 0xaa, 0x0a, 0x00,
   0x80, 0x55, 0x55, 0x55, 0x0d, 0x00, 0x00, 0xab, 0xaa, 0xaa, 0x06, 0x00,
   0x00, 0x56, 0x55, 0x55, 0x03, 0x00, 0x00, 0xfc, 0xff, 0xff, 0x01, 0x00,
   0x00, 0x00, 0x00, 0x00, 0x00, 0x00, 0x00, 0x00, 0x00, 0x00, 0x00, 0x00,
   0x00, 0x00, 0x00, 0x00, 0x00, 0x00, 0x00, 0x00, 0x00, 0x00, 0x00, 0x00 };
