#define _width 25
#define _height 23
static char _bits[] = {
 0x00,0x00,0x00,0x00,0x00,0x00,0x00,0x00,0x00,0x00,0x00,0x00,0x00,0x00,0x00,
 0x00,0x00,0x00,0x00,0x00,0x00,0x1c,0x00,0x00,0x40,0x14,0x01,0x00,0xc0,0x94,
 0x01,0x00,0xc0,0xdd,0x01,0x00,0x40,0x6b,0x01,0x00,0x40,0x3e,0x01,0x00,0x7f,
 0x1c,0xff,0x01,0x40,0x36,0x01,0x00,0x40,0x63,0x01,0x00,0xc0,0xc1,0x01,0x00,
 0xc0,0x80,0x01,0x00,0x40,0x00,0x01,0x00,0x00,0x00,0x00,0x00,0x00,0x00,0x00,
 0x00,0x00,0x00,0x00,0x00,0x00,0x00,0x00,0x00,0x00,0x00,0x00,0x00,0x00,0x00,
 0x00,0x00 };
