#define _width 25
#define _height 25
static char _bits[] = {
 0x00,0x00,0x00,0x00,0x00,0x00,0x00,0x00,0x00,0x00,0x00,0x00,0x00,0x00,0x00,
 0x00,0x00,0x00,0x00,0x00,0x00,0x00,0x00,0x00,0x00,0x00,0x00,0x00,0x00,0x7c,
 0x00,0x00,0x00,0xc6,0x00,0x00,0x00,0xbb,0x01,0x00,0x80,0x55,0x03,0x00,0x80,
 0xaa,0x02,0x00,0xff,0xd7,0xff,0x01,0x80,0xaa,0x02,0x00,0x80,0x55,0x03,0x00,
 0x00,0xbb,0x01,0x00,0x00,0xc6,0x00,0x00,0x00,0x7c,0x00,0x00,0x00,0x00,0x00,
 0x00,0x00,0x00,0x00,0x00,0x00,0x00,0x00,0x00,0x00,0x00,0x00,0x00,0x00,0x00,
 0x00,0x00,0x00,0x00,0x00,0x00,0x00,0x00,0x00,0x00 };
