#define _width 51
#define _height 51
static char _bits[] = {
 0x00,0x00,0x00,0x00,0x00,0x00,0x00,0x00,0x00,0x00,0x00,0x00,0x00,0x00,0x00,
 0x00,0x00,0x00,0x00,0x00,0x00,0x00,0x00,0x00,0x00,0x00,0x00,0x00,0x00,0x00,
 0x00,0x00,0x00,0x00,0x00,0x00,0x00,0x00,0x00,0x00,0x00,0x00,0x00,0x00,0xe0,
 0x3f,0x00,0x00,0x00,0x00,0x00,0xbc,0xea,0x01,0x00,0x00,0x00,0x00,0xf7,0x7f,
 0x07,0x00,0x00,0x00,0xc0,0x1d,0xc0,0x1d,0x00,0x00,0x00,0x60,0x07,0x12,0x37,
 0x00,0x00,0x00,0xd0,0x09,0x00,0x5c,0x00,0x00,0x00,0x78,0x80,0x90,0xf0,0x00,
 0x00,0x00,0x34,0x00,0x00,0x64,0x01,0x00,0x00,0x1e,0x01,0x24,0xc1,0x03,0x00,
 0x00,0x0a,0x44,0x08,0x90,0x02,0x00,0x00,0x0f,0x00,0x41,0xaa,0x07,0x00,0x00,
 0x05,0x00,0x00,0x10,0x05,0x00,0x80,0x27,0x20,0x00,0x48,0x0f,0x00,0x80,0x82,
 0x80,0x88,0x22,0x0a,0x00,0x80,0x03,0x04,0x20,0x90,0x0e,0x00,0xc0,0x01,0x20,
 0x89,0x42,0x1c,0x00,0x40,0x09,0x02,0x00,0x94,0x14,0x00,0xc0,0x41,0x80,0x90,
 0x28,0x1e,0x00,0x40,0x01,0x50,0x22,0x82,0x14,0x00,0xff,0x05,0x01,0x08,0x28,
 0xfd,0x07,0x40,0x01,0x82,0xa2,0x84,0x16,0x00,0xc0,0x41,0x08,0x01,0x50,0x1c,
 0x00,0x40,0x09,0x20,0x44,0xa5,0x14,0x00,0xc0,0x01,0x01,0x11,0x00,0x1d,0x00,
 0x80,0x23,0x50,0x44,0x55,0x0e,0x00,0x80,0x02,0x02,0x09,0x80,0x0a,0x00,0x80,
 0x47,0x50,0xa4,0x14,0x0f,0x00,0x00,0x25,0x09,0x02,0x40,0x05,0x00,0x00,0x8f,
 0xa2,0x10,0xa9,0x07,0x00,0x00,0x0a,0x15,0x46,0x94,0x02,0x00,0x00,0x5e,0x48,
 0x10,0xc1,0x03,0x00,0x00,0x34,0x81,0x0a,0x64,0x01,0x00,0x00,0x78,0x2a,0xa1,
 0xf0,0x00,0x00,0x00,0xd0,0x41,0x4c,0x5d,0x00,0x00,0x00,0x60,0xa7,0x10,0x37,
 0x00,0x00,0x00,0xc0,0x1d,0xca,0x1d,0x00,0x00,0x00,0x00,0xf7,0x7f,0x07,0x00,
 0x00,0x00,0x00,0xbc,0xea,0x01,0x00,0x00,0x00,0x00,0xe0,0x3f,0x00,0x00,0x00,
 0x00,0x00,0x00,0x00,0x00,0x00,0x00,0x00,0x00,0x00,0x00,0x00,0x00,0x00,0x00,
 0x00,0x00,0x00,0x00,0x00,0x00,0x00,0x00,0x00,0x00,0x00,0x00,0x00,0x00,0x00,
 0x00,0x00,0x00,0x00,0x00,0x00,0x00,0x00,0x00,0x00,0x00,0x00 };
